:SAMPLES-PER-SECOND 30
:FULLY-SPECIFIED
:DEGREES
280
root  5.53312 39.9697 -5.2735 -127.268 -85.6171 126.002
RightUpLeg  -11.2082 -13.2818 -3.81407
RightLeg  20.9209 -7.07698 2.26329
RightFoot  -10.2398 -0.0559345 -1.28878
RightToes  -4.65663e-010 0 -3.6325e-017
Spine  8.60461 1.68463 11.6005
Spine1  10.9719 3.89936 -4.13594
HEad  33.8445 6.20173 -4.06476
LeftShoulder1  6.81163 -9.23335 -46.6245
LeftArm  -28.9144 29.572 -20.4325
LeftForeArm  98.4154 -80.4154 -61.9761
LeftHand  -0.244104 0.0205437 5.32207
RightShoulder  5.9819 9.25726 40.6974
RightArm  -7.82477 -17.2013 28.6101
RightForeArm  -46.4603 53.3195 17.8465
RightHand  -5.98785 12.5638 -37.6575
LeftUpLeg  -26.9007 -10.6091 11.3634
LeftLeg  49.3154 -25.969 -28.3844
LeftFoot  28.1457 12.032 -33.2595
LeftToes  4.18335e-011 1.59304e-011 3.38507e-012
281
root  5.50086 39.992 -5.32512 -128.52 -85.1725 127.327
RightUpLeg  -10.9137 -13.1526 -4.29649
RightLeg  20.5327 -6.68855 2.61801
RightFoot  -11.1963 -0.0792982 1.09321
RightToes  -4.65663e-010 0 -3.6325e-017
Spine  8.05006 1.62283 12.0126
Spine1  11.367 3.98505 -4.51408
HEad  34.2715 6.78557 -4.11709
LeftShoulder1  6.80237 -9.18196 -46.7519
LeftArm  -29.0099 29.8311 -20.5582
LeftForeArm  97.1815 -80.2847 -60.3375
LeftHand  -0.244104 0.0205437 5.32207
RightShoulder  5.97454 9.22598 40.7515
RightArm  -7.55136 -17.5446 28.8575
RightForeArm  -46.8238 52.7949 17.5285
RightHand  -5.97762 12.5299 -37.6639
LeftUpLeg  -24.3053 -9.99801 12.4717
LeftLeg  47.4703 -32.3527 -31.8101
LeftFoot  22.2556 11.7549 -38.1448
LeftToes  4.18335e-011 1.59304e-011 3.38507e-012
282
root  5.46352 40.0675 -5.37195 -129.364 -84.6613 128.345
RightUpLeg  -10.634 -12.6375 -4.68106
RightLeg  19.6699 -6.79053 2.86192
RightFoot  -11.0451 -0.0788383 1.66412
RightToes  -4.65663e-010 0 -3.6325e-017
Spine  7.33143 1.50074 12.1852
Spine1  11.7756 3.95275 -4.80931
HEad  34.7053 7.54322 -4.26844
LeftShoulder1  6.78255 -9.10272 -46.9109
LeftArm  -29.1129 30.2613 -20.7807
LeftForeArm  96.8062 -80.2394 -59.7803
LeftHand  -0.244104 0.0205437 5.32207
RightShoulder  5.92802 9.14324 40.694
RightArm  -7.18851 -17.9153 28.9851
RightForeArm  -47.0837 52.3482 17.2633
RightHand  -5.96735 12.5176 -37.628
LeftUpLeg  -21.1838 -9.66159 13.0163
LeftLeg  44.3292 -37.4553 -32.3039
LeftFoot  16.5841 10.3569 -40.4653
LeftToes  4.18335e-011 1.59304e-011 3.38507e-012
283
root  5.43427 40.1962 -5.42899 -128.452 -84.028 127.733
RightUpLeg  -10.4514 -12.1395 -5.01831
RightLeg  18.4491 -6.97423 2.94685
RightFoot  -9.9895 -0.075023 0.693837
RightToes  -4.65663e-010 0 -3.6325e-017
Spine  6.49449 1.33391 11.8518
Spine1  12.2202 3.7955 -5.00579
HEad  34.9705 8.37473 -4.50818
LeftShoulder1  6.77008 -9.0439 -47.046
LeftArm  -29.1804 30.7648 -21.1049
LeftForeArm  96.8702 -80.2538 -60.0058
LeftHand  -0.244104 0.0205437 5.32207
RightShoulder  5.85286 9.01622 40.5762
RightArm  -6.89032 -18.2828 28.9446
RightForeArm  -47.1633 52.0747 17.102
RightHand  -6.00659 12.6337 -37.631
LeftUpLeg  -17.9235 -9.99537 12.789
LeftLeg  39.5947 -39.9428 -29.4961
LeftFoot  11.8014 8.17566 -38.8257
LeftToes  4.18335e-011 1.59304e-011 3.38507e-012
284
root  5.40891 40.3484 -5.49466 -126.712 -83.3334 126.433
RightUpLeg  -10.3615 -11.8226 -5.31891
RightLeg  17.0353 -6.99242 2.93269
RightFoot  -8.80983 -0.047984 -0.544685
RightToes  -4.65663e-010 0 -3.6325e-017
Spine  5.59685 1.13492 11.1751
Spine1  12.6573 3.57398 -5.24219
HEad  35.0533 9.14637 -4.76597
LeftShoulder1  6.73733 -8.98568 -47.0355
LeftArm  -29.084 31.125 -21.542
LeftForeArm  97.0057 -80.2805 -60.4169
LeftHand  -0.244104 0.0205437 5.32207
RightShoulder  5.78945 8.9066 40.4837
RightArm  -6.86925 -18.6775 28.7321
RightForeArm  -47.0828 51.9837 17.0461
RightHand  -6.06856 12.8115 -37.646
LeftUpLeg  -14.9414 -10.6167 11.7816
LeftLeg  34.029 -38.6745 -24.2326
LeftFoot  8.23983 5.88492 -33.4827
LeftToes  4.18335e-011 1.59304e-011 3.38507e-012
285
root  5.38432 40.4889 -5.55412 -124.801 -82.8682 125.083
RightUpLeg  -10.3203 -11.5474 -5.47428
RightLeg  15.5509 -7.12504 2.91283
RightFoot  -7.82053 -0.00836668 -1.4542
RightToes  -4.65663e-010 0 -3.6325e-017
Spine  4.71885 0.886917 10.5365
Spine1  12.9598 3.2656 -5.4636
HEad  35.0605 9.72153 -5.0273
LeftShoulder1  6.67536 -8.90694 -46.8946
LeftArm  -28.7338 31.1822 -22.0055
LeftForeArm  97.2518 -80.3109 -60.8171
LeftHand  -0.244104 0.0205437 5.32207
RightShoulder  5.7601 8.86164 40.4196
RightArm  -7.18938 -19.1709 28.384
RightForeArm  -47.0205 52.0313 17.0727
RightHand  -6.11628 12.9516 -37.6514
LeftUpLeg  -12.6275 -10.8739 10.2118
LeftLeg  29.34 -33.9914 -18.5512
LeftFoot  5.98325 3.98124 -25.9914
LeftToes  4.18335e-011 1.59304e-011 3.38507e-012
286
root  5.37148 40.593 -5.59683 -121.719 -82.8775 122.646
RightUpLeg  -10.377 -11.1955 -5.40981
RightLeg  14.1936 -7.70517 2.91245
RightFoot  -6.90761 0.0416321 -2.28035
RightToes  -4.65663e-010 0 -3.6325e-017
Spine  3.88534 0.60683 10.0475
Spine1  13.1468 2.80614 -5.35131
HEad  34.9736 9.96551 -5.2854
LeftShoulder1  6.62991 -8.855 -46.7676
LeftArm  -28.1897 30.887 -22.3768
LeftForeArm  97.6462 -80.3503 -61.2827
LeftHand  -0.244104 0.0205437 5.32207
RightShoulder  5.74113 8.84542 40.3322
RightArm  -7.73386 -19.6807 27.9377
RightForeArm  -47.153 52.0685 17.0981
RightHand  -6.11562 12.9728 -37.6074
LeftUpLeg  -11.2593 -10.8215 8.4127
LeftLeg  26.3509 -27.1884 -13.5659
LeftFoot  4.809 2.60684 -18.4781
LeftToes  4.18335e-011 1.59304e-011 3.38507e-012
287
root  5.3894 40.6488 -5.62487 -116.118 -83.2988 117.714
RightUpLeg  -10.6387 -10.8652 -5.20103
RightLeg  13.2522 -8.64656 2.89693
RightFoot  -6.20597 0.0921122 -2.98799
RightToes  -4.65663e-010 0 -3.6325e-017
Spine  3.13965 0.354698 9.58566
Spine1  13.3418 2.24211 -4.7629
HEad  34.681 9.76505 -5.43464
LeftShoulder1  6.6334 -8.87381 -46.7203
LeftArm  -27.6039 30.2645 -22.6263
LeftForeArm  97.7231 -80.3656 -61.5461
LeftHand  -0.244104 0.0205437 5.32207
RightShoulder  5.70441 8.79417 40.233
RightArm  -8.37567 -20.0025 27.4561
RightForeArm  -47.5313 51.8926 17.0042
RightHand  -6.03905 12.8268 -37.4477
LeftUpLeg  -10.9908 -10.9112 6.68387
LeftLeg  25.0566 -19.2949 -9.26361
LeftFoot  4.3109 1.76478 -13.0034
LeftToes  4.18335e-011 1.59304e-011 3.38507e-012
288
root  5.4486 40.6678 -5.64941 -107.824 -83.8432 110.001
RightUpLeg  -11.0139 -10.7352 -4.9987
RightLeg  12.7581 -9.60377 2.89438
RightFoot  -5.96486 0.109442 -3.1926
RightToes  -4.65663e-010 0 -3.6325e-017
Spine  2.69782 0.177382 9.13254
Spine1  13.4689 1.73987 -4.01426
HEad  34.2409 9.07912 -5.3704
LeftShoulder1  6.65334 -8.92277 -46.6758
LeftArm  -27.1308 29.477 -22.8068
LeftForeArm  97.1729 -80.3343 -61.4019
LeftHand  -0.244104 0.0205437 5.32207
RightShoulder  5.66678 8.72571 40.1875
RightArm  -9.02161 -20.1376 27.0523
RightForeArm  -48.3 51.5096 16.8003
RightHand  -5.95583 12.6576 -37.292
LeftUpLeg  -11.8272 -11.0852 5.16493
LeftLeg  25.6004 -11.3221 -5.51995
LeftFoot  4.26576 1.31623 -9.77638
LeftToes  4.18335e-011 1.59304e-011 3.38507e-012
289
root  5.53846 40.6707 -5.67687 -98.372 -84.2915 100.901
RightUpLeg  -11.2411 -10.8288 -4.86984
RightLeg  12.483 -10.3786 2.99245
RightFoot  -6.07997 0.0940252 -2.9519
RightToes  -4.65663e-010 0 -3.6325e-017
Spine  2.76996 0.111358 8.8628
Spine1  13.3577 1.47186 -3.5138
HEad  33.8461 7.94561 -5.16643
LeftShoulder1  6.64912 -8.94244 -46.5703
LeftArm  -26.8937 28.8379 -22.9586
LeftForeArm  96.6777 -80.3156 -61.4865
LeftHand  -0.244104 0.0205437 5.32207
RightShoulder  5.66444 8.71631 40.203
RightArm  -9.51643 -20.3216 26.8194
RightForeArm  -49.7242 51.177 16.643
RightHand  -6.00663 12.7436 -37.4197
LeftUpLeg  -13.532 -11.0572 3.82735
LeftLeg  27.9141 -4.46815 -2.22302
LeftFoot  4.85969 0.9388 -6.8043
LeftToes  4.18335e-011 1.59304e-011 3.38507e-012
290
root  5.63302 40.6637 -5.70824 -89.8679 -84.6222 92.4422
RightUpLeg  -11.1646 -10.998 -4.77959
RightLeg  12.2892 -10.9707 3.18987
RightFoot  -6.31697 0.0680286 -2.525
RightToes  -4.65663e-010 0 -3.6325e-017
Spine  3.24803 0.218048 8.90052
Spine1  13.1326 1.53086 -3.34679
HEad  33.5361 6.45528 -4.99432
LeftShoulder1  6.63528 -8.94646 -46.4557
LeftArm  -26.9118 28.6045 -23.0386
LeftForeArm  96.982 -80.3699 -62.4409
LeftHand  -0.244104 0.0205437 5.32207
RightShoulder  5.6953 8.77546 40.2297
RightArm  -9.6955 -20.6075 26.7424
RightForeArm  -51.6391 51.0316 16.6014
RightHand  -6.20801 13.1222 -37.8462
LeftUpLeg  -15.7017 -10.9626 2.62214
LeftLeg  31.3422 0.619535 0.749296
LeftFoot  6.52402 0.329416 -2.3832
LeftToes  4.18335e-011 1.59304e-011 3.38507e-012
291
root  5.71002 40.635 -5.74241 -83.7524 -84.9467 86.0816
RightUpLeg  -10.8237 -11.0861 -4.65629
RightLeg  12.2445 -11.3805 3.3925
RightFoot  -6.74495 0.0219912 -1.67338
RightToes  -4.65663e-010 0 -3.6325e-017
Spine  3.83244 0.528362 9.25323
Spine1  13.088 1.90498 -3.38074
HEad  33.2169 4.79168 -4.88992
LeftShoulder1  6.64481 -8.97669 -46.409
LeftArm  -27.0778 28.8232 -22.9493
LeftForeArm  97.3913 -80.4271 -63.4322
LeftHand  -0.244104 0.0205437 5.32207
RightShoulder  5.73244 8.84312 40.2739
RightArm  -9.52227 -20.7075 26.7127
RightForeArm  -53.2774 50.8867 16.551
RightHand  -6.4013 13.4926 -38.2263
LeftUpLeg  -18.0461 -11.0476 1.67658
LeftLeg  35.186 4.09657 3.45121
LeftFoot  9.50354 -0.56481 2.7294
LeftToes  4.18335e-011 1.59304e-011 3.38507e-012
292
root  5.7618 40.5718 -5.77334 -80.6939 -85.419 82.5349
RightUpLeg  -10.3307 -11.0463 -4.4023
RightLeg  12.4562 -11.5681 3.54043
RightFoot  -7.4685 -0.0404486 -0.286924
RightToes  -4.65663e-010 0 -3.6325e-017
Spine  4.40848 0.968771 9.93763
Spine1  13.2247 2.49024 -3.54542
HEad  32.9458 3.23463 -4.76519
LeftShoulder1  6.66685 -9.01679 -46.4145
LeftArm  -27.317 29.4532 -22.6643
LeftForeArm  96.4809 -80.3615 -62.8084
LeftHand  -0.244104 0.0205437 5.32207
RightShoulder  5.77751 8.90587 40.3953
RightArm  -9.07783 -20.3857 26.6594
RightForeArm  -54.1002 50.5655 16.3871
RightHand  -6.45261 13.5885 -38.3283
LeftUpLeg  -20.5122 -11.2611 1.24025
LeftLeg  39.2135 6.33842 5.88468
LeftFoot  13.7191 -1.50496 6.39584
LeftToes  4.18335e-011 1.59304e-011 3.38507e-012
293
root  5.78845 40.475 -5.79385 -81.4396 -86.0939 82.5714
RightUpLeg  -9.81258 -10.9597 -3.9352
RightLeg  13.04 -11.5277 3.60663
RightFoot  -8.19 -0.0748719 0.677979
RightToes  -4.65663e-010 0 -3.6325e-017
Spine  5.06098 1.43748 10.8912
Spine1  13.3046 3.15956 -3.78285
HEad  32.8992 1.98969 -4.60542
LeftShoulder1  6.66705 -9.02229 -46.3951
LeftArm  -27.6687 30.4776 -22.2749
LeftForeArm  94.3961 -80.1622 -60.4602
LeftHand  -0.244104 0.0205437 5.32207
RightShoulder  5.84624 9.00336 40.5716
RightArm  -8.49694 -19.7382 26.6641
RightForeArm  -54.2642 50.1924 16.1863
RightHand  -6.3814 13.4284 -38.2362
LeftUpLeg  -23.0306 -11.4976 1.4111
LeftLeg  43.2875 7.50763 7.89177
LeftFoot  19.0114 -2.17537 7.59448
LeftToes  4.18335e-011 1.59304e-011 3.38507e-012
294
root  5.78887 40.359 -5.80703 -87.8359 -86.7942 88.0622
RightUpLeg  -9.39293 -11.0033 -3.31182
RightLeg  14.12 -11.2305 3.52787
RightFoot  -8.51703 -0.060301 0.107743
RightToes  -4.65663e-010 0 -3.6325e-017
Spine  5.78905 1.91942 11.8201
Spine1  13.2965 3.84121 -3.92687
HEad  33.0571 1.05252 -4.45959
LeftShoulder1  6.64517 -8.99641 -46.3367
LeftArm  -28.1067 31.7953 -21.8333
LeftForeArm  92.7659 -79.9529 -58.0026
LeftHand  -0.244104 0.0205437 5.32207
RightShoulder  5.91703 9.12571 40.6735
RightArm  -7.94605 -18.9484 26.8966
RightForeArm  -53.9482 49.962 16.0573
RightHand  -6.24896 13.1517 -38.0207
LeftUpLeg  -25.3159 -11.8368 2.01749
LeftLeg  46.8868 7.55083 8.94893
LeftFoot  25.2377 -2.46764 6.98698
LeftToes  4.18335e-011 1.59304e-011 3.38507e-012
